{
  "accessors": [
    {
      "bufferView": 1,
      "componentType": 5126,
      "count": 65532,
      "max": [
        2.390273332595825,
        6.602365493774414,
        3.757124423980713
      ],
      "min": [
        -1.8691984415054321,
        -5.199207305908203,
        -1.8921573162078857
      ],
      "type": "VEC3"
    },
    {
      "bufferView": 1,
      "byteOffset": 786384,
      "componentType": 5126,
      "count": 65532,
      "max": [
        0.9999923706054688,
        0.9999135732650757,
        0.9999732971191406
      ],
      "min": [
        -0.9999439716339111,
        -0.9998781681060791,
        -0.9999237060546875
      ],
      "type": "VEC3"
    },
    {
      "bufferView": 0,
      "componentType": 5125,
      "count": 342186,
      "type": "SCALAR"
    },
    {
      "bufferView": 1,
      "byteOffset": 1572768,
      "componentType": 5126,
      "count": 41105,
      "max": [
        2.389404535293579,
        6.601189613342285,
        3.7380924224853516
      ],
      "min": [
        -1.8677849769592285,
        -5.18931770324707,
        -1.877563714981079
      ],
      "type": "VEC3"
    },
    {
      "bufferView": 1,
      "byteOffset": 2066028,
      "componentType": 5126,
      "count": 41105,
      "max": [
        0.9999696016311646,
        0.9989269375801086,
        0.999610424041748
      ],
      "min": [
        -0.9995332956314087,
        -0.9926024675369263,
        -0.9998860359191895
      ],
      "type": "VEC3"
    },
    {
      "bufferView": 0,
      "byteOffset": 1368744,
      "componentType": 5125,
      "count": 166470,
      "type": "SCALAR"
    }
  ],
  "asset": {
    "extras": {
      "author": "metin1 (https://sketchfab.com/metin1)",
      "license": "CC-BY-4.0 (http://creativecommons.org/licenses/by/4.0/)",
      "source": "https://sketchfab.com/3d-models/tooncloud-bba41664fb3e4f2b8979227b038046d0",
      "title": "ToonCloud"
    },
    "generator": "Sketchfab-12.66.0",
    "version": "2.0"
  },
  "bufferViews": [
    {
      "buffer": 0,
      "byteLength": 2034624,
      "name": "floatBufferViews",
      "target": 34963
    },
    {
      "buffer": 0,
      "byteLength": 2559288,
      "byteOffset": 2034624,
      "byteStride": 12,
      "name": "floatBufferViews",
      "target": 34962
    }
  ],
  "buffers": [
    {
      "byteLength": 4593912,
      "uri": "src/components/objects/Cloud/scene.bin"
    }
  ],
  "materials": [
    {
      "doubleSided": true,
      "name": "Scene_-_Root",
      "pbrMetallicRoughness": {
        "metallicFactor": 0.0,
        "roughnessFactor": 0.6
      }
    }
  ],
  "meshes": [
    {
      "name": "Mball__0",
      "primitives": [
        {
          "attributes": {
            "NORMAL": 1,
            "POSITION": 0
          },
          "indices": 2,
          "material": 0,
          "mode": 4
        }
      ]
    },
    {
      "name": "Mball__0",
      "primitives": [
        {
          "attributes": {
            "NORMAL": 4,
            "POSITION": 3
          },
          "indices": 5,
          "material": 0,
          "mode": 4
        }
      ]
    }
  ],
  "nodes": [
    {
      "children": [
        1
      ],
      "matrix": [
        1.0,
        0.0,
        0.0,
        0.0,
        0.0,
        2.220446049250313e-16,
        -1.0,
        0.0,
        0.0,
        1.0,
        2.220446049250313e-16,
        0.0,
        0.0,
        0.0,
        0.0,
        1.0
      ],
      "name": "Sketchfab_model"
    },
    {
      "children": [
        2
      ],
      "matrix": [
        0.009999999776482582,
        0.0,
        0.0,
        0.0,
        0.0,
        0.0,
        0.009999999776482582,
        0.0,
        0.0,
        -0.009999999776482582,
        0.0,
        0.0,
        0.0,
        0.0,
        0.0,
        1.0
      ],
      "name": "8dd4515e26574f4a88eb6a2e04a286e3.fbx"
    },
    {
      "children": [
        3
      ],
      "name": "RootNode"
    },
    {
      "children": [
        4,
        5
      ],
      "matrix": [
        100.0,
        0.0,
        0.0,
        0.0,
        0.0,
        -1.629206793918314e-05,
        -99.99999999999868,
        0.0,
        0.0,
        99.99999999999868,
        -1.629206793918314e-05,
        0.0,
        0.0,
        0.0,
        0.0,
        1.0
      ],
      "name": "Mball"
    },
    {
      "mesh": 0,
      "name": "Mball__0"
    },
    {
      "mesh": 1,
      "name": "Mball__0"
    }
  ],
  "scene": 0,
  "scenes": [
    {
      "name": "Sketchfab_Scene",
      "nodes": [
        0
      ]
    }
  ]
}
