{
    "asset" : {
        "generator" : "Khronos glTF Blender I/O v1.8.19",
        "version" : "2.0"
    },
    "scene" : 0,
    "scenes" : [
        {
            "name" : "Scene",
            "nodes" : [
                0
            ]
        }
    ],
    "nodes" : [
        {
            "mesh" : 0,
            "name" : "AnyConv.com__scene",
            "rotation" : [
                0.7071068286895752,
                0,
                0,
                0.7071067094802856
            ],
            "scale" : [
                0.009999999776482582,
                0.009999999776482582,
                0.009999999776482582
            ]
        }
    ],
    "materials" : [
        {
            "doubleSided" : true,
            "name" : "Material.001",
            "pbrMetallicRoughness" : {
                "baseColorTexture" : {
                    "index" : 0
                },
                "metallicFactor" : 0,
                "roughnessFactor" : 0.5
            }
        },
        {
            "doubleSided" : true,
            "name" : "Material.007",
            "pbrMetallicRoughness" : {
                "baseColorTexture" : {
                    "index" : 1
                },
                "metallicFactor" : 0,
                "roughnessFactor" : 0.5
            }
        },
        {
            "doubleSided" : true,
            "name" : "Material.008",
            "pbrMetallicRoughness" : {
                "baseColorTexture" : {
                    "index" : 2
                },
                "metallicFactor" : 0,
                "roughnessFactor" : 0.5
            }
        },
        {
            "doubleSided" : true,
            "name" : "Material.004",
            "pbrMetallicRoughness" : {
                "baseColorTexture" : {
                    "index" : 3
                },
                "metallicFactor" : 0,
                "roughnessFactor" : 0.5
            }
        },
        {
            "doubleSided" : true,
            "name" : "Material.002",
            "pbrMetallicRoughness" : {
                "baseColorTexture" : {
                    "index" : 4
                },
                "metallicFactor" : 0,
                "roughnessFactor" : 0.5
            }
        },
        {
            "doubleSided" : true,
            "name" : "Material.003",
            "pbrMetallicRoughness" : {
                "baseColorTexture" : {
                    "index" : 5
                },
                "metallicFactor" : 0,
                "roughnessFactor" : 0.5
            }
        }
    ],
    "meshes" : [
        {
            "name" : "AnyConv.com__scene",
            "primitives" : [
                {
                    "attributes" : {
                        "POSITION" : 0,
                        "NORMAL" : 1,
                        "TEXCOORD_0" : 2
                    },
                    "indices" : 3,
                    "material" : 0
                },
                {
                    "attributes" : {
                        "POSITION" : 4,
                        "NORMAL" : 5,
                        "TEXCOORD_0" : 6
                    },
                    "indices" : 3,
                    "material" : 1
                },
                {
                    "attributes" : {
                        "POSITION" : 7,
                        "NORMAL" : 8,
                        "TEXCOORD_0" : 9
                    },
                    "indices" : 3,
                    "material" : 2
                },
                {
                    "attributes" : {
                        "POSITION" : 10,
                        "NORMAL" : 11,
                        "TEXCOORD_0" : 12
                    },
                    "indices" : 13,
                    "material" : 3
                },
                {
                    "attributes" : {
                        "POSITION" : 14,
                        "NORMAL" : 15,
                        "TEXCOORD_0" : 16
                    },
                    "indices" : 13,
                    "material" : 4
                },
                {
                    "attributes" : {
                        "POSITION" : 17,
                        "NORMAL" : 18,
                        "TEXCOORD_0" : 19
                    },
                    "indices" : 20,
                    "material" : 5
                }
            ]
        }
    ],
    "textures" : [
        {
            "sampler" : 0,
            "source" : 0
        },
        {
            "sampler" : 0,
            "source" : 1
        },
        {
            "sampler" : 0,
            "source" : 1
        },
        {
            "sampler" : 0,
            "source" : 0
        },
        {
            "sampler" : 0,
            "source" : 3
        },
        {
            "sampler" : 0,
            "source" : 2
        }
    ],
    "images" : [
        {
            "mimeType" : "image/png",
            "name" : "texture",
            "uri" : "src/components/objects/Bird/texture.png"
        },
        {
            "mimeType" : "image/png",
            "name" : "Material",
            "uri" : "src/components/objects/Bird/Material.png"
        },
        {
            "mimeType" : "image/png",
            "name" : "Image",
            "uri" : "src/components/objects/Bird/Image.png"
        },
        {
            "mimeType" : "image/png",
            "name" : "Material",
            "uri" : "src/components/objects/Bird/red.png"
        }
    ],
    "accessors" : [
        {
            "bufferView" : 0,
            "componentType" : 5126,
            "count" : 559,
            "max" : [
                -50.58895492553711,
                137.21144104003906,
                175.6957244873047
            ],
            "min" : [
                -329.73272705078125,
                -153.10513305664062,
                -114.78175354003906
            ],
            "type" : "VEC3"
        },
        {
            "bufferView" : 1,
            "componentType" : 5126,
            "count" : 559,
            "type" : "VEC3"
        },
        {
            "bufferView" : 2,
            "componentType" : 5126,
            "count" : 559,
            "type" : "VEC2"
        },
        {
            "bufferView" : 3,
            "componentType" : 5123,
            "count" : 2880,
            "type" : "SCALAR"
        },
        {
            "bufferView" : 4,
            "componentType" : 5126,
            "count" : 559,
            "max" : [
                -174.1751251220703,
                -44.60515594482422,
                150.51431274414062
            ],
            "min" : [
                -308.1142578125,
                -178.54432678222656,
                16.50091552734375
            ],
            "type" : "VEC3"
        },
        {
            "bufferView" : 5,
            "componentType" : 5126,
            "count" : 559,
            "type" : "VEC3"
        },
        {
            "bufferView" : 6,
            "componentType" : 5126,
            "count" : 559,
            "type" : "VEC2"
        },
        {
            "bufferView" : 7,
            "componentType" : 5126,
            "count" : 559,
            "max" : [
                -52.77743911743164,
                -40.54716873168945,
                150.51431274414062
            ],
            "min" : [
                -186.25860595703125,
                -174.48634338378906,
                16.50091552734375
            ],
            "type" : "VEC3"
        },
        {
            "bufferView" : 8,
            "componentType" : 5126,
            "count" : 559,
            "type" : "VEC3"
        },
        {
            "bufferView" : 9,
            "componentType" : 5126,
            "count" : 559,
            "type" : "VEC2"
        },
        {
            "bufferView" : 10,
            "componentType" : 5126,
            "count" : 1118,
            "max" : [
                30.04134178161621,
                135.53207397460938,
                79.19931030273438
            ],
            "min" : [
                -408.0302734375,
                -90.5452651977539,
                -24.201663970947266
            ],
            "type" : "VEC3"
        },
        {
            "bufferView" : 11,
            "componentType" : 5126,
            "count" : 1118,
            "type" : "VEC3"
        },
        {
            "bufferView" : 12,
            "componentType" : 5126,
            "count" : 1118,
            "type" : "VEC2"
        },
        {
            "bufferView" : 13,
            "componentType" : 5123,
            "count" : 5760,
            "type" : "SCALAR"
        },
        {
            "bufferView" : 14,
            "componentType" : 5126,
            "count" : 1118,
            "max" : [
                -78.93498992919922,
                -47.72154998779297,
                29.761030197143555
            ],
            "min" : [
                -289.8353271484375,
                -228.62730407714844,
                -20.335617065429688
            ],
            "type" : "VEC3"
        },
        {
            "bufferView" : 15,
            "componentType" : 5126,
            "count" : 1118,
            "type" : "VEC3"
        },
        {
            "bufferView" : 16,
            "componentType" : 5126,
            "count" : 1118,
            "type" : "VEC2"
        },
        {
            "bufferView" : 17,
            "componentType" : 5126,
            "count" : 1118,
            "max" : [
                -66.28043365478516,
                -105.54419708251953,
                131.58279418945312
            ],
            "min" : [
                -283.3031005859375,
                -187.68417358398438,
                54.04657745361328
            ],
            "type" : "VEC3"
        },
        {
            "bufferView" : 18,
            "componentType" : 5126,
            "count" : 1118,
            "type" : "VEC3"
        },
        {
            "bufferView" : 19,
            "componentType" : 5126,
            "count" : 1118,
            "type" : "VEC2"
        },
        {
            "bufferView" : 20,
            "componentType" : 5123,
            "count" : 5760,
            "type" : "SCALAR"
        }
    ],
    "bufferViews" : [
        {
            "buffer" : 0,
            "byteLength" : 6708,
            "byteOffset" : 0
        },
        {
            "buffer" : 0,
            "byteLength" : 6708,
            "byteOffset" : 6708
        },
        {
            "buffer" : 0,
            "byteLength" : 4472,
            "byteOffset" : 13416
        },
        {
            "buffer" : 0,
            "byteLength" : 5760,
            "byteOffset" : 17888
        },
        {
            "buffer" : 0,
            "byteLength" : 6708,
            "byteOffset" : 23648
        },
        {
            "buffer" : 0,
            "byteLength" : 6708,
            "byteOffset" : 30356
        },
        {
            "buffer" : 0,
            "byteLength" : 4472,
            "byteOffset" : 37064
        },
        {
            "buffer" : 0,
            "byteLength" : 6708,
            "byteOffset" : 41536
        },
        {
            "buffer" : 0,
            "byteLength" : 6708,
            "byteOffset" : 48244
        },
        {
            "buffer" : 0,
            "byteLength" : 4472,
            "byteOffset" : 54952
        },
        {
            "buffer" : 0,
            "byteLength" : 13416,
            "byteOffset" : 59424
        },
        {
            "buffer" : 0,
            "byteLength" : 13416,
            "byteOffset" : 72840
        },
        {
            "buffer" : 0,
            "byteLength" : 8944,
            "byteOffset" : 86256
        },
        {
            "buffer" : 0,
            "byteLength" : 11520,
            "byteOffset" : 95200
        },
        {
            "buffer" : 0,
            "byteLength" : 13416,
            "byteOffset" : 106720
        },
        {
            "buffer" : 0,
            "byteLength" : 13416,
            "byteOffset" : 120136
        },
        {
            "buffer" : 0,
            "byteLength" : 8944,
            "byteOffset" : 133552
        },
        {
            "buffer" : 0,
            "byteLength" : 13416,
            "byteOffset" : 142496
        },
        {
            "buffer" : 0,
            "byteLength" : 13416,
            "byteOffset" : 155912
        },
        {
            "buffer" : 0,
            "byteLength" : 8944,
            "byteOffset" : 169328
        },
        {
            "buffer" : 0,
            "byteLength" : 11520,
            "byteOffset" : 178272
        }
    ],
    "samplers" : [
        {
            "magFilter" : 9729,
            "minFilter" : 9987
        }
    ],
    "buffers" : [
        {
            "byteLength" : 189792,
            "uri" : "src/components/objects/Bird/birdflaps.bin"
        }
    ]
}
