{
  "accessors": [
    {
      "bufferView": 2,
      "componentType": 5126,
      "count": 559,
      "max": [
        1.000000238418579,
        1.0,
        1.0
      ],
      "min": [
        -0.9999998211860657,
        -1.0000003576278687,
        -1.0
      ],
      "type": "VEC3"
    },
    {
      "bufferView": 2,
      "byteOffset": 6708,
      "componentType": 5126,
      "count": 559,
      "max": [
        1.0,
        1.0,
        1.0
      ],
      "min": [
        -1.0,
        -1.0,
        -1.0
      ],
      "type": "VEC3"
    },
    {
      "bufferView": 1,
      "componentType": 5126,
      "count": 559,
      "max": [
        1.000000238418579,
        1.0
      ],
      "min": [
        0.0,
        0.0
      ],
      "type": "VEC2"
    },
    {
      "bufferView": 0,
      "componentType": 5125,
      "count": 2880,
      "type": "SCALAR"
    },
    {
      "bufferView": 2,
      "byteOffset": 13416,
      "componentType": 5126,
      "count": 559,
      "max": [
        0.8458447456359863,
        1.1624460220336914,
        0.8266205787658691
      ],
      "min": [
        -0.07686641812324524,
        0.2397347092628479,
        -0.09609052538871765
      ],
      "type": "VEC3"
    },
    {
      "bufferView": 2,
      "byteOffset": 20124,
      "componentType": 5126,
      "count": 559,
      "max": [
        1.0,
        1.0,
        1.0
      ],
      "min": [
        -1.0,
        -1.0,
        -1.0
      ],
      "type": "VEC3"
    },
    {
      "bufferView": 1,
      "byteOffset": 4472,
      "componentType": 5126,
      "count": 559,
      "max": [
        1.000000238418579,
        1.0
      ],
      "min": [
        0.0,
        0.0
      ],
      "type": "VEC2"
    },
    {
      "bufferView": 0,
      "byteOffset": 11520,
      "componentType": 5125,
      "count": 2880,
      "type": "SCALAR"
    },
    {
      "bufferView": 2,
      "byteOffset": 26832,
      "componentType": 5126,
      "count": 559,
      "max": [
        0.006377220153808594,
        1.1624488830566406,
        0.8266205787658691
      ],
      "min": [
        -0.9163339138031006,
        0.23973757028579712,
        -0.09609052538871765
      ],
      "type": "VEC3"
    },
    {
      "bufferView": 2,
      "byteOffset": 33540,
      "componentType": 5126,
      "count": 559,
      "max": [
        1.0,
        1.0,
        1.0
      ],
      "min": [
        -1.0,
        -1.0,
        -1.0
      ],
      "type": "VEC3"
    },
    {
      "bufferView": 1,
      "byteOffset": 8944,
      "componentType": 5126,
      "count": 559,
      "max": [
        1.000000238418579,
        1.0
      ],
      "min": [
        0.0,
        0.0
      ],
      "type": "VEC2"
    },
    {
      "bufferView": 0,
      "byteOffset": 23040,
      "componentType": 5125,
      "count": 2880,
      "type": "SCALAR"
    },
    {
      "bufferView": 2,
      "byteOffset": 40248,
      "componentType": 5126,
      "count": 1118,
      "max": [
        1.5841292142868042,
        0.5828829407691956,
        0.15915481746196747
      ],
      "min": [
        -1.6067546606063843,
        -0.9747586250305176,
        -0.37633654475212097
      ],
      "type": "VEC3"
    },
    {
      "bufferView": 2,
      "byteOffset": 53664,
      "componentType": 5126,
      "count": 1118,
      "max": [
        0.9989821314811707,
        0.9992650747299194,
        0.9998663663864136
      ],
      "min": [
        -0.9996134042739868,
        -0.9998148679733276,
        -0.9998663663864136
      ],
      "type": "VEC3"
    },
    {
      "bufferView": 1,
      "byteOffset": 13416,
      "componentType": 5126,
      "count": 1118,
      "max": [
        1.000000238418579,
        1.0
      ],
      "min": [
        0.0,
        0.0
      ],
      "type": "VEC2"
    },
    {
      "bufferView": 0,
      "byteOffset": 34560,
      "componentType": 5125,
      "count": 5760,
      "type": "SCALAR"
    },
    {
      "bufferView": 2,
      "byteOffset": 67080,
      "componentType": 5126,
      "count": 1118,
      "max": [
        0.7264500856399536,
        1.5202746391296387,
        -0.004791781306266785
      ],
      "min": [
        -0.7264493107795715,
        0.2740090489387512,
        -0.34971797466278076
      ],
      "type": "VEC3"
    },
    {
      "bufferView": 2,
      "byteOffset": 80496,
      "componentType": 5126,
      "count": 1118,
      "max": [
        1.0,
        0.9970287680625916,
        0.9999569654464722
      ],
      "min": [
        -1.0,
        -0.9970287680625916,
        -0.9999569654464722
      ],
      "type": "VEC3"
    },
    {
      "bufferView": 1,
      "byteOffset": 22360,
      "componentType": 5126,
      "count": 1118,
      "max": [
        1.000000238418579,
        1.0
      ],
      "min": [
        0.0,
        0.0
      ],
      "type": "VEC2"
    },
    {
      "bufferView": 0,
      "byteOffset": 57600,
      "componentType": 5125,
      "count": 5760,
      "type": "SCALAR"
    },
    {
      "bufferView": 2,
      "byteOffset": 93912,
      "componentType": 5126,
      "count": 1118,
      "max": [
        0.6834567189216614,
        1.2243459224700928,
        0.6962729692459106
      ],
      "min": [
        -0.8116194009780884,
        0.6904897689819336,
        0.16241943836212158
      ],
      "type": "VEC3"
    },
    {
      "bufferView": 2,
      "byteOffset": 107328,
      "componentType": 5126,
      "count": 1118,
      "max": [
        1.0,
        1.0,
        1.0
      ],
      "min": [
        -1.0,
        -1.0,
        -1.0
      ],
      "type": "VEC3"
    },
    {
      "bufferView": 1,
      "byteOffset": 31304,
      "componentType": 5126,
      "count": 1118,
      "max": [
        1.000000238418579,
        1.0
      ],
      "min": [
        0.0,
        0.0
      ],
      "type": "VEC2"
    },
    {
      "bufferView": 0,
      "byteOffset": 80640,
      "componentType": 5125,
      "count": 5760,
      "type": "SCALAR"
    }
  ],
  "asset": {
    "extras": {
      "author": "sodasarbath2605 (https://sketchfab.com/sodasarbath2605)",
      "license": "CC-BY-4.0 (http://creativecommons.org/licenses/by/4.0/)",
      "source": "https://sketchfab.com/3d-models/flappybird3d-c39ab43542664539a94ec1443cc479f0",
      "title": "FlappyBird3d"
    },
    "generator": "Sketchfab-12.66.0",
    "version": "2.0"
  },
  "bufferViews": [
    {
      "buffer": 0,
      "byteLength": 103680,
      "name": "floatBufferViews",
      "target": 34963
    },
    {
      "buffer": 0,
      "byteLength": 40248,
      "byteOffset": 103680,
      "byteStride": 8,
      "name": "floatBufferViews",
      "target": 34962
    },
    {
      "buffer": 0,
      "byteLength": 120744,
      "byteOffset": 143928,
      "byteStride": 12,
      "name": "floatBufferViews",
      "target": 34962
    }
  ],
  "buffers": [
    {
      "byteLength": 264672,
      "uri": "src/components/objects/Bird/scene.bin"
    }
  ],
  "materials": [
    {
      "doubleSided": true,
      "name": "Material.001",
      "pbrMetallicRoughness": {
        "baseColorFactor": [
          0.8,
          0.571831,
          0.00091005,
          1.0
        ],
        "metallicFactor": 0.0,
        "roughnessFactor": 0.8705050019415042
      }
    },
    {
      "doubleSided": true,
      "name": "Material.007",
      "pbrMetallicRoughness": {
        "baseColorFactor": [
          0.8,
          0.8,
          0.8,
          1.0
        ],
        "metallicFactor": 0.0,
        "roughnessFactor": 0.8211145618000169
      }
    },
    {
      "doubleSided": true,
      "name": "Material.008",
      "pbrMetallicRoughness": {
        "baseColorFactor": [
          0.8,
          0.8,
          0.8,
          1.0
        ],
        "metallicFactor": 0.0,
        "roughnessFactor": 0.8211145618000169
      }
    },
    {
      "doubleSided": true,
      "name": "Material.004",
      "pbrMetallicRoughness": {
        "baseColorFactor": [
          0.79752,
          0.8,
          0.335191,
          1.0
        ],
        "metallicFactor": 0.0,
        "roughnessFactor": 0.8287365254753146
      }
    },
    {
      "doubleSided": true,
      "name": "Material.002",
      "pbrMetallicRoughness": {
        "baseColorFactor": [
          0.8,
          0.0131609,
          0.0,
          1.0
        ],
        "metallicFactor": 0.0,
        "roughnessFactor": 0.9598642175716197
      }
    },
    {
      "doubleSided": true,
      "name": "Material.003",
      "pbrMetallicRoughness": {
        "baseColorFactor": [
          0.0,
          0.0,
          0.0,
          1.0
        ],
        "metallicFactor": 0.0
      }
    }
  ],
  "meshes": [
    {
      "name": "MAIN BODY_Material.001_0",
      "primitives": [
        {
          "attributes": {
            "NORMAL": 1,
            "POSITION": 0,
            "TEXCOORD_0": 2
          },
          "indices": 3,
          "material": 0,
          "mode": 4
        }
      ]
    },
    {
      "name": "MAIN BODY_Material.007_0",
      "primitives": [
        {
          "attributes": {
            "NORMAL": 5,
            "POSITION": 4,
            "TEXCOORD_0": 6
          },
          "indices": 7,
          "material": 1,
          "mode": 4
        }
      ]
    },
    {
      "name": "MAIN BODY_Material.008_0",
      "primitives": [
        {
          "attributes": {
            "NORMAL": 9,
            "POSITION": 8,
            "TEXCOORD_0": 10
          },
          "indices": 11,
          "material": 2,
          "mode": 4
        }
      ]
    },
    {
      "name": "MAIN BODY_Material.004_0",
      "primitives": [
        {
          "attributes": {
            "NORMAL": 13,
            "POSITION": 12,
            "TEXCOORD_0": 14
          },
          "indices": 15,
          "material": 3,
          "mode": 4
        }
      ]
    },
    {
      "name": "MAIN BODY_Material.002_0",
      "primitives": [
        {
          "attributes": {
            "NORMAL": 17,
            "POSITION": 16,
            "TEXCOORD_0": 18
          },
          "indices": 19,
          "material": 4,
          "mode": 4
        }
      ]
    },
    {
      "name": "MAIN BODY_Material.003_0",
      "primitives": [
        {
          "attributes": {
            "NORMAL": 21,
            "POSITION": 20,
            "TEXCOORD_0": 22
          },
          "indices": 23,
          "material": 5,
          "mode": 4
        }
      ]
    }
  ],
  "nodes": [
    {
      "children": [
        1
      ],
      "matrix": [
        1.0,
        0.0,
        0.0,
        0.0,
        0.0,
        2.220446049250313e-16,
        -1.0,
        0.0,
        0.0,
        1.0,
        2.220446049250313e-16,
        0.0,
        0.0,
        0.0,
        0.0,
        1.0
      ],
      "name": "Sketchfab_model"
    },
    {
      "children": [
        2
      ],
      "matrix": [
        1.0,
        0.0,
        0.0,
        0.0,
        0.0,
        -1.0,
        0.0,
        0.0,
        0.0,
        0.0,
        -1.0,
        0.0,
        0.0,
        0.0,
        0.0,
        1.0
      ],
      "name": "FLAPPY BIRD3.fbx"
    },
    {
      "children": [
        3
      ],
      "name": "RootNode"
    },
    {
      "children": [
        4,
        5,
        6,
        7,
        8,
        9
      ],
      "matrix": [
        -145.15827019042473,
        -4.83449458991838,
        0.0,
        0.0,
        4.83449458991838,
        -145.15827019042473,
        0.0,
        0.0,
        0.0,
        0.0,
        145.23873901367188,
        0.0,
        -188.7223358154297,
        -7.946874141693115,
        30.456981658935547,
        1.0
      ],
      "name": "MAIN BODY"
    },
    {
      "mesh": 0,
      "name": "MAIN BODY_Material.001_0"
    },
    {
      "mesh": 1,
      "name": "MAIN BODY_Material.007_0"
    },
    {
      "mesh": 2,
      "name": "MAIN BODY_Material.008_0"
    },
    {
      "mesh": 3,
      "name": "MAIN BODY_Material.004_0"
    },
    {
      "mesh": 4,
      "name": "MAIN BODY_Material.002_0"
    },
    {
      "mesh": 5,
      "name": "MAIN BODY_Material.003_0"
    }
  ],
  "scene": 0,
  "scenes": [
    {
      "name": "Sketchfab_Scene",
      "nodes": [
        0
      ]
    }
  ]
}
