{
  "accessors": [
    {
      "bufferView": 1,
      "componentType": 5126,
      "count": 33391,
      "max": [
        0.21746885776519775,
        -0.003851937362924218,
        0.00920812040567398
      ],
      "min": [
        -0.010298456996679306,
        -0.19776961207389832,
        -2.136026382446289
      ],
      "type": "VEC3"
    },
    {
      "bufferView": 1,
      "byteOffset": 400692,
      "componentType": 5126,
      "count": 33391,
      "max": [
        0.9999873638153076,
        0.9999954104423523,
        0.9999982714653015
      ],
      "min": [
        -0.999999463558197,
        -0.9999922513961792,
        -0.9986630082130432
      ],
      "type": "VEC3"
    },
    {
      "bufferView": 0,
      "componentType": 5125,
      "count": 198978,
      "type": "SCALAR"
    }
  ],
  "asset": {
    "extras": {
      "author": "Maxim Gehricke (https://sketchfab.com/maxim_gehricke)",
      "license": "CC-BY-NC-SA-4.0 (http://creativecommons.org/licenses/by-nc-sa/4.0/)",
      "source": "https://sketchfab.com/3d-models/icicle-58fd3342c14248679d89ec35558f33c3",
      "title": "Icicle"
    },
    "generator": "Sketchfab-12.66.0",
    "version": "2.0"
  },
  "bufferViews": [
    {
      "buffer": 0,
      "byteLength": 795912,
      "name": "floatBufferViews",
      "target": 34963
    },
    {
      "buffer": 0,
      "byteLength": 801384,
      "byteOffset": 795912,
      "byteStride": 12,
      "name": "floatBufferViews",
      "target": 34962
    }
  ],
  "buffers": [
    {
      "byteLength": 1597296,
      "uri": "src/components/objects/Icicle/scene.bin"
    }
  ],
  "extensionsUsed": [
    "KHR_materials_transmission"
  ],
  "materials": [
    {
      "alphaMode": "BLEND",
      "doubleSided": true,
      "extensions": {
        "KHR_materials_transmission": {
          "transmissionFactor": 0.9314080465011644
        }
      },
      "name": "material_0",
      "pbrMetallicRoughness": {
        "baseColorFactor": [
          0.21451610941879626,
          0.21451610941879626,
          0.21451610941879626,
          0.25
        ],
        "metallicFactor": 0.0,
        "roughnessFactor": 0.23883680207212302
      }
    }
  ],
  "meshes": [
    {
      "name": "Object_0",
      "primitives": [
        {
          "attributes": {
            "NORMAL": 1,
            "POSITION": 0
          },
          "indices": 2,
          "material": 0,
          "mode": 4
        }
      ]
    }
  ],
  "nodes": [
    {
      "children": [
        1
      ],
      "matrix": [
        1.0,
        0.0,
        0.0,
        0.0,
        0.0,
        2.220446049250313e-16,
        -1.0,
        0.0,
        0.0,
        1.0,
        2.220446049250313e-16,
        0.0,
        0.0,
        0.0,
        0.0,
        1.0
      ],
      "name": "Sketchfab_model"
    },
    {
      "children": [
        2
      ],
      "name": "icicle1.obj.cleaner.materialmerger.gles"
    },
    {
      "mesh": 0,
      "name": "Object_2"
    }
  ],
  "scene": 0,
  "scenes": [
    {
      "name": "Sketchfab_Scene",
      "nodes": [
        0
      ]
    }
  ]
}
